<svg xmlns="http://www.w3.org/2000/svg" width="262.78" height="111.825" viewBox="0 0 262.78 111.825">
  <g id="Logo" transform="translate(0.5 0.5)" style="isolation: isolate">
    <rect id="Rectangle_18" data-name="Rectangle 18" width="13.807" height="110.825" fill="#313131" stroke="#231f20" stroke-miterlimit="10" stroke-width="1"/>
    <line id="Line_22" data-name="Line 22" x1="15.937" transform="translate(98.367 110.825)" fill="none" stroke="#231f20" stroke-miterlimit="10" stroke-width="1"/>
    <line id="Line_23" data-name="Line 23" x1="15.946" transform="translate(175.738)" fill="none" stroke="#231f20" stroke-miterlimit="10" stroke-width="1"/>
    <path id="Path_6" data-name="Path 6" d="M118.59.5h61.446l-7.973,11.415H118.59Z" transform="translate(-19.497 -0.5)" fill="#313131" stroke="#231f20" stroke-miterlimit="10" stroke-width="1"/>
    <path id="Path_7" data-name="Path 7" d="M216.367,11.915,224.35.5H208.4L200.43,11.915" transform="translate(-32.656 -0.5)" fill="none" stroke="#231f20" stroke-miterlimit="10" stroke-width="1"/>
    <path id="Path_8" data-name="Path 8" d="M217.156,118.9v11.415H155.71l7.973-11.415Z" transform="translate(-25.469 -19.49)" fill="#313131" stroke="#231f20" stroke-miterlimit="10" stroke-width="1"/>
    <path id="Path_9" data-name="Path 9" d="M285.745,62.832,246.18,119.476h15.937l31.6-45.254,7.973-11.415L293.718,51.4" transform="translate(-40.021 -8.66)" fill="#7a7a7a" stroke="#231f20" stroke-miterlimit="10" stroke-width="1"/>
    <path id="Path_10" data-name="Path 10" d="M286.079,54.635,248.26.5h15.946l29.846,42.729,7.973,11.406L294.052,66.05" transform="translate(-40.355 -0.5)" fill="#7a7a7a" stroke="#231f20" stroke-miterlimit="10" stroke-width="1"/>
    <path id="Path_11" data-name="Path 11" d="M42.183,68.694,34.21,57.279l7.973-11.415L73.876.5H89.813L50.147,57.279" transform="translate(-5.916 -0.5)" fill="#7a7a7a" stroke="#231f20" stroke-miterlimit="10" stroke-width="1"/>
    <path id="Path_12" data-name="Path 12" d="M42.183,54.55,34.21,65.965,42.183,77.38l29.753,42.588H87.883l-37.736-54" transform="translate(-5.916 -9.149)" fill="#7a7a7a" stroke="#231f20" stroke-miterlimit="10" stroke-width="1"/>
    <line id="Line_24" data-name="Line 24" x1="15.946" transform="translate(67.939)" fill="#2a525e" stroke="#231f20" stroke-miterlimit="10" stroke-width="1"/>
    <path id="Path_13" data-name="Path 13" d="M211.05.5l-7.973,11.418L141.631,99.907l-7.964,11.418H117.72l7.973-11.418L187.14,11.918,195.113.5Z" transform="translate(-19.363 -0.5)" fill="#7a7a7a" stroke="#231f20" stroke-miterlimit="10" stroke-width="1"/>
    <line id="Line_25" data-name="Line 25" transform="translate(149.54 60.357)" fill="none" stroke="#231f20" stroke-miterlimit="10" stroke-width="1"/>
  </g>
</svg>
